<svg xmlns="http://www.w3.org/2000/svg" viewBox="0 0 149.57 61.04"><defs><style>.cls-1{fill:none;stroke:#603813;stroke-miterlimit:10;}.cls-2{fill:#603813;}</style></defs><g id="Layer_2" data-name="Layer 2"><g id="Oval2"><ellipse class="cls-1" cx="74.37" cy="29.54" rx="57.25" ry="22.83"/><path class="cls-2" d="M76.22,1.42A120,120,0,0,0,35.74,5.66c-3.25.87-6.43,1.91-9.54,3.07a70.72,70.72,0,0,0-8.94,4,38.8,38.8,0,0,0-4,2.46c-.67.42-1.23.92-1.85,1.37s-1.16,1-1.65,1.51a12,12,0,0,0-3.81,7,11.84,11.84,0,0,0,2.33,7.82,30.68,30.68,0,0,0,6.63,6.86,66,66,0,0,0,17.71,9.49c12.77,4.67,26.48,6.62,40,6.89,3.39,0,6.78,0,10.17-.11s6.75-.33,10.11-.64a150.85,150.85,0,0,0,19.87-3,92.12,92.12,0,0,0,9.54-2.68,58,58,0,0,0,8.9-3.8,38.27,38.27,0,0,0,4-2.44c.65-.42,1.2-.91,1.8-1.36a20.41,20.41,0,0,0,1.58-1.48A10.89,10.89,0,0,0,142,34a10.92,10.92,0,0,0-2.42-7.07,19.72,19.72,0,0,0-1.37-1.71c-.53-.54-1-1.11-1.59-1.62a41,41,0,0,0-3.6-3A85.72,85.72,0,0,0,115.76,11,120.41,120.41,0,0,0,76.22,1.42Zm0-.71c6.85.45,13.7,1.07,20.55,2,1.72.22,3.43.47,5.14.75s3.42.54,5.13.85c3.42.66,6.83,1.4,10.22,2.32a83.39,83.39,0,0,1,10,3.4l2.45,1.07,2.43,1.17,2.39,1.3c.77.48,1.57.92,2.33,1.44a34.88,34.88,0,0,1,8.48,7.57,19.53,19.53,0,0,1,3.08,5.4,16.38,16.38,0,0,1,1.05,6.57,16.23,16.23,0,0,1-1.84,6.41,19.75,19.75,0,0,1-3.72,5,35.28,35.28,0,0,1-9.38,6.53,77.89,77.89,0,0,1-20.49,6.46A127.44,127.44,0,0,1,93.2,61,164.55,164.55,0,0,1,72.36,60c-3.45-.4-6.88-.88-10.3-1.42-1.7-.28-3.41-.57-5.11-.9s-3.39-.63-5.09-1a184.2,184.2,0,0,1-20-5.3A90.12,90.12,0,0,1,12.64,42.9c-.75-.48-1.52-.94-2.25-1.49l-1.1-.79-1.07-.85c-.73-.55-1.38-1.22-2.08-1.83s-1.32-1.32-1.91-2.09a18,18,0,0,1-3.07-5A14.88,14.88,0,0,1,0,24.63,15.15,15.15,0,0,1,1.65,18.5a18.81,18.81,0,0,1,3.54-4.9,33.32,33.32,0,0,1,9.19-6.47,67,67,0,0,1,20.45-5.9c3.47-.48,7-.78,10.42-1C47,.17,48.72.09,50.45.07S53.91,0,55.63,0C62.54,0,69.41.29,76.27.71Z"/></g></g></svg>