<svg xmlns="http://www.w3.org/2000/svg" viewBox="0 0 61.01 149.63"><defs><style>.cls-1{fill:#603813;}</style></defs><g id="Layer_2" data-name="Layer 2"><g id="Oval1"><path class="cls-1" d="M23.75,19c11.55,0,23.9,23.88,27.52,53.24,1.86,15.06,1.27,29.49-1.65,40.63-2.8,10.69-7.59,17.2-13.12,17.89a8.72,8.72,0,0,1-1,.06C23.93,130.83,11.58,107,8,77.59,6.1,62.53,6.69,48.1,9.61,37c2.81-10.69,7.59-17.21,13.12-17.89a8.72,8.72,0,0,1,1-.06m0-1a8.72,8.72,0,0,0-1.14.07C10.1,19.62,3.1,46.32,7,77.71c3.75,30.44,16.35,54.12,28.51,54.12a8.72,8.72,0,0,0,1.14-.07c12.51-1.54,19.51-28.24,15.64-59.64C48.51,41.68,35.91,18,23.75,18Z"/><path class="cls-1" d="M1.42,73.38a120.26,120.26,0,0,0,4.23,40.48c.88,3.26,1.92,6.44,3.07,9.55a70.72,70.72,0,0,0,4,8.94,39.64,39.64,0,0,0,2.46,4.05c.42.66.92,1.23,1.38,1.85s1,1.16,1.5,1.65a11.93,11.93,0,0,0,7,3.82,11.85,11.85,0,0,0,7.82-2.34,30.43,30.43,0,0,0,6.85-6.63A65.66,65.66,0,0,0,49.17,117c4.67-12.78,6.62-26.48,6.88-40,.05-3.4,0-6.79-.1-10.17s-.34-6.76-.64-10.12a150.85,150.85,0,0,0-3-19.87,89,89,0,0,0-2.68-9.54,56.7,56.7,0,0,0-3.8-8.91,36.62,36.62,0,0,0-2.44-4c-.41-.65-.91-1.2-1.35-1.81s-1-1.12-1.49-1.58A10.89,10.89,0,0,0,34,7.57,10.87,10.87,0,0,0,26.92,10a21.82,21.82,0,0,0-1.71,1.37c-.54.53-1.11,1-1.62,1.6a38.22,38.22,0,0,0-3,3.6A86,86,0,0,0,11,33.83,120.65,120.65,0,0,0,1.42,73.38Zm-.71,0c.45-6.86,1.07-13.71,2-20.56.22-1.71.46-3.43.74-5.14s.55-3.42.86-5.13c.65-3.42,1.39-6.84,2.32-10.22a81.75,81.75,0,0,1,3.39-10L11,19.79l1.17-2.43L13.51,15c.48-.77.92-1.57,1.44-2.33a34.68,34.68,0,0,1,7.57-8.48,19.64,19.64,0,0,1,5.39-3.09,16.43,16.43,0,0,1,6.58-1A16.18,16.18,0,0,1,40.9,1.86a19.78,19.78,0,0,1,5,3.73A35.28,35.28,0,0,1,52.44,15a78.35,78.35,0,0,1,6.45,20.49A127.67,127.67,0,0,1,61,56.39a164.62,164.62,0,0,1-1.06,20.85c-.4,3.45-.88,6.88-1.42,10.3-.28,1.7-.57,3.41-.9,5.11s-.63,3.4-1,5.09a183.77,183.77,0,0,1-5.3,20.05A90.16,90.16,0,0,1,42.89,137c-.49.75-1,1.52-1.49,2.24l-.79,1.11-.85,1.07c-.55.72-1.22,1.38-1.83,2.07a25.43,25.43,0,0,1-2.09,1.92,18.26,18.26,0,0,1-5,3.08,15,15,0,0,1-6.18,1.14A15.15,15.15,0,0,1,18.48,148a18.75,18.75,0,0,1-4.89-3.54,33.37,33.37,0,0,1-6.47-9.2,67,67,0,0,1-5.89-20.45c-.48-3.47-.78-7-1-10.42-.08-1.74-.16-3.47-.18-5.21S0,95.69,0,94C0,87.06.29,80.19.71,73.33Z"/></g></g></svg>