<svg xmlns="http://www.w3.org/2000/svg" viewBox="0 0 393.7 68.98"><defs><style>.cls-1{fill:#603813;}</style></defs><g id="Layer_2" data-name="Layer 2"><g id="thickWave"><path class="cls-1" d="M0,66.94A272.15,272.15,0,0,1,40,30.07,191,191,0,0,1,63.18,15.34,138.69,138.69,0,0,1,88.85,4.7a128.67,128.67,0,0,1,13.67-3.22A106.65,106.65,0,0,1,116.58.05a100.32,100.32,0,0,1,28.2,3,93.71,93.71,0,0,1,13.51,4.56,124.63,124.63,0,0,1,12.61,6.31c8.11,4.61,15.62,9.84,23,14.82a257.12,257.12,0,0,0,22.41,13.85,134.43,134.43,0,0,0,23.83,10A132.17,132.17,0,0,0,265.51,58a165.06,165.06,0,0,0,26,.65,196.69,196.69,0,0,0,26-3.55L324,53.58l3.22-.75,3.19-.9,6.38-1.79,6.31-2.08C360,42.53,376.28,35.17,392.24,27l1.46,2.51a274,274,0,0,1-48.13,25.28l-6.38,2.48-6.5,2.21-3.25,1.1-3.31,1-6.61,1.89a197.58,197.58,0,0,1-27.23,4.79,154.78,154.78,0,0,1-27.82.1A139.36,139.36,0,0,1,237,63.17a139.36,139.36,0,0,1-25.91-10.61,232,232,0,0,1-23.46-14.47c-7.47-5.1-14.72-10.2-22.22-14.53A99.91,99.91,0,0,0,142,13.45a90,90,0,0,0-25.19-3.23,116.88,116.88,0,0,0-12.79.95,120.22,120.22,0,0,0-12.67,2.51C74.61,18.09,58.69,26,43.91,35.74S15.3,56.89,2.07,69Z"/></g></g></svg>